<mxfile host="app.diagrams.net" agent="Mozilla/5.0 (Macintosh; Intel Mac OS X 10_15_7) AppleWebKit/537.36 (KHTML, like Gecko) Chrome/135.0.0.0 Safari/537.36" version="26.2.12">
  <diagram name="Страница — 1" id="Ib8MRgKqYz-HcoMgbFyH">
    <mxGraphModel dx="1831" dy="913" grid="0" gridSize="10" guides="1" tooltips="1" connect="1" arrows="1" fold="1" page="0" pageScale="1" pageWidth="827" pageHeight="1169" math="0" shadow="0">
      <root>
        <mxCell id="0" />
        <mxCell id="1" parent="0" />
        <mxCell id="vsyCngv4FSoejkHqKuPp-14" style="edgeStyle=orthogonalEdgeStyle;rounded=0;orthogonalLoop=1;jettySize=auto;html=1;dashed=1;strokeWidth=2;" edge="1" parent="1" source="vsyCngv4FSoejkHqKuPp-9" target="vsyCngv4FSoejkHqKuPp-13">
          <mxGeometry relative="1" as="geometry" />
        </mxCell>
        <mxCell id="vsyCngv4FSoejkHqKuPp-9" value="" style="rounded=1;whiteSpace=wrap;html=1;strokeWidth=2;dashed=1;" vertex="1" parent="1">
          <mxGeometry x="120" y="150" width="520" height="210" as="geometry" />
        </mxCell>
        <mxCell id="vsyCngv4FSoejkHqKuPp-10" style="rounded=0;orthogonalLoop=1;jettySize=auto;html=1;exitX=0.5;exitY=1;exitDx=0;exitDy=0;entryX=1;entryY=0;entryDx=0;entryDy=0;strokeWidth=2;dashed=1;" edge="1" parent="1" source="vsyCngv4FSoejkHqKuPp-2" target="vsyCngv4FSoejkHqKuPp-3">
          <mxGeometry relative="1" as="geometry" />
        </mxCell>
        <mxCell id="vsyCngv4FSoejkHqKuPp-11" style="edgeStyle=orthogonalEdgeStyle;rounded=0;orthogonalLoop=1;jettySize=auto;html=1;exitX=0.5;exitY=1;exitDx=0;exitDy=0;strokeWidth=2;dashed=1;" edge="1" parent="1" source="vsyCngv4FSoejkHqKuPp-2" target="vsyCngv4FSoejkHqKuPp-6">
          <mxGeometry relative="1" as="geometry" />
        </mxCell>
        <mxCell id="vsyCngv4FSoejkHqKuPp-12" style="rounded=0;orthogonalLoop=1;jettySize=auto;html=1;exitX=0.5;exitY=1;exitDx=0;exitDy=0;entryX=0;entryY=0;entryDx=0;entryDy=0;strokeWidth=2;dashed=1;" edge="1" parent="1" source="vsyCngv4FSoejkHqKuPp-2" target="vsyCngv4FSoejkHqKuPp-4">
          <mxGeometry relative="1" as="geometry" />
        </mxCell>
        <mxCell id="vsyCngv4FSoejkHqKuPp-2" value="&lt;b&gt;&lt;font face=&quot;Verdana&quot;&gt;Moderator Agent&lt;/font&gt;&lt;/b&gt;" style="rounded=1;whiteSpace=wrap;html=1;fillColor=#f5f5f5;fontColor=#333333;strokeColor=none;" vertex="1" parent="1">
          <mxGeometry x="320" y="120" width="120" height="60" as="geometry" />
        </mxCell>
        <mxCell id="vsyCngv4FSoejkHqKuPp-7" style="edgeStyle=orthogonalEdgeStyle;rounded=0;orthogonalLoop=1;jettySize=auto;html=1;strokeWidth=2;" edge="1" parent="1" source="vsyCngv4FSoejkHqKuPp-3" target="vsyCngv4FSoejkHqKuPp-6">
          <mxGeometry relative="1" as="geometry" />
        </mxCell>
        <mxCell id="vsyCngv4FSoejkHqKuPp-3" value="&lt;b&gt;&lt;font face=&quot;Verdana&quot;&gt;Blue Agent&lt;/font&gt;&lt;/b&gt;" style="rounded=1;whiteSpace=wrap;html=1;fillColor=#dae8fc;strokeColor=none;" vertex="1" parent="1">
          <mxGeometry x="160" y="240" width="120" height="60" as="geometry" />
        </mxCell>
        <mxCell id="vsyCngv4FSoejkHqKuPp-8" style="edgeStyle=orthogonalEdgeStyle;rounded=0;orthogonalLoop=1;jettySize=auto;html=1;entryX=1;entryY=0.5;entryDx=0;entryDy=0;strokeWidth=2;" edge="1" parent="1" source="vsyCngv4FSoejkHqKuPp-4" target="vsyCngv4FSoejkHqKuPp-6">
          <mxGeometry relative="1" as="geometry" />
        </mxCell>
        <mxCell id="vsyCngv4FSoejkHqKuPp-4" value="&lt;b&gt;&lt;font face=&quot;Verdana&quot;&gt;Red Agent&lt;/font&gt;&lt;/b&gt;" style="rounded=1;whiteSpace=wrap;html=1;fillColor=#f8cecc;strokeColor=none;" vertex="1" parent="1">
          <mxGeometry x="480" y="240" width="120" height="60" as="geometry" />
        </mxCell>
        <mxCell id="vsyCngv4FSoejkHqKuPp-6" value="&lt;b&gt;&lt;font face=&quot;Verdana&quot;&gt;Conflict Simulation&lt;/font&gt;&lt;/b&gt;" style="ellipse;whiteSpace=wrap;html=1;aspect=fixed;fillColor=#d5e8d4;strokeColor=none;" vertex="1" parent="1">
          <mxGeometry x="340" y="230" width="80" height="80" as="geometry" />
        </mxCell>
        <mxCell id="vsyCngv4FSoejkHqKuPp-13" value="&lt;b&gt;&lt;font face=&quot;Verdana&quot;&gt;Output Dataset:&lt;/font&gt;&lt;/b&gt;&lt;div&gt;&lt;b&gt;&lt;font face=&quot;Verdana&quot;&gt;- Event Log&lt;/font&gt;&lt;/b&gt;&lt;/div&gt;&lt;div&gt;&lt;b&gt;&lt;font face=&quot;Verdana&quot;&gt;- Decision Tree&lt;/font&gt;&lt;/b&gt;&lt;/div&gt;&lt;div&gt;&lt;b&gt;&lt;font face=&quot;Verdana&quot;&gt;- Outcome&lt;/font&gt;&lt;/b&gt;&lt;/div&gt;" style="shape=internalStorage;whiteSpace=wrap;html=1;backgroundOutline=1;align=center;strokeWidth=2;fillColor=#f5f5f5;fontColor=#333333;strokeColor=#666666;" vertex="1" parent="1">
          <mxGeometry x="730" y="175" width="160" height="160" as="geometry" />
        </mxCell>
        <mxCell id="vsyCngv4FSoejkHqKuPp-16" style="edgeStyle=orthogonalEdgeStyle;rounded=0;orthogonalLoop=1;jettySize=auto;html=1;dashed=1;strokeWidth=2;" edge="1" parent="1" source="vsyCngv4FSoejkHqKuPp-15" target="vsyCngv4FSoejkHqKuPp-9">
          <mxGeometry relative="1" as="geometry" />
        </mxCell>
        <mxCell id="vsyCngv4FSoejkHqKuPp-15" value="&lt;font face=&quot;Verdana&quot;&gt;&lt;b&gt;Input Dataset:&lt;/b&gt;&lt;/font&gt;&lt;div&gt;&lt;font face=&quot;Verdana&quot;&gt;&lt;b&gt;- Scenario&lt;/b&gt;&lt;/font&gt;&lt;/div&gt;&lt;div&gt;&lt;font face=&quot;Verdana&quot;&gt;&lt;b&gt;- Blue Strategy&lt;/b&gt;&lt;/font&gt;&lt;/div&gt;&lt;div&gt;&lt;font face=&quot;Verdana&quot;&gt;&lt;b&gt;- Red Strategy&lt;/b&gt;&lt;/font&gt;&lt;/div&gt;" style="shape=internalStorage;whiteSpace=wrap;html=1;backgroundOutline=1;align=center;strokeWidth=2;fillColor=#f5f5f5;fontColor=#333333;strokeColor=#666666;" vertex="1" parent="1">
          <mxGeometry x="-240" y="175" width="160" height="160" as="geometry" />
        </mxCell>
        <mxCell id="vsyCngv4FSoejkHqKuPp-17" value="&lt;b&gt;&lt;font face=&quot;Verdana&quot;&gt;Model&amp;nbsp;&lt;/font&gt;&lt;/b&gt;&lt;div&gt;&lt;b&gt;&lt;font face=&quot;Verdana&quot;&gt;Post-Training&lt;/font&gt;&lt;/b&gt;&lt;/div&gt;" style="rounded=1;whiteSpace=wrap;html=1;fillColor=#d5e8d4;strokeColor=none;" vertex="1" parent="1">
          <mxGeometry x="-40" y="200" width="120" height="35" as="geometry" />
        </mxCell>
      </root>
    </mxGraphModel>
  </diagram>
</mxfile>
